<svg width="300" height="254" viewBox="0 0 300 254" fill="none" xmlns="http://www.w3.org/2000/svg" role="img" aria-labelledby="title desc">
  <title id="title">LinkedIn profile card</title>
  <desc id="desc">Static LinkedIn-style profile card for Michael Mnogolet.</desc>
  <defs>
    <filter id="shadow" x="30" y="10" width="240" height="234" filterUnits="userSpaceOnUse" color-interpolation-filters="sRGB">
      <feFlood flood-opacity="0" result="BackgroundImageFix"/>
      <feColorMatrix in="SourceAlpha" type="matrix" values="0 0 0 0 0 0 0 0 0 0 0 0 0 0 0 0 0 0 127 0" result="hardAlpha"/>
      <feOffset dy="2"/>
      <feGaussianBlur stdDeviation="4"/>
      <feColorMatrix type="matrix" values="0 0 0 0 0.1 0 0 0 0 0.12 0 0 0 0 0.14 0 0 0 0.08 0"/>
      <feBlend mode="normal" in2="BackgroundImageFix" result="effect1_dropShadow_1_1"/>
      <feBlend mode="normal" in="SourceGraphic" in2="effect1_dropShadow_1_1" result="shape"/>
    </filter>
    <clipPath id="avatarClip">
      <circle cx="72" cy="98" r="26"/>
    </clipPath>
  </defs>
  <g filter="url(#shadow)">
    <rect x="38" y="18" width="224" height="206" rx="8" fill="#FFFFFF"/>
    <rect x="38.5" y="18.5" width="223" height="205" rx="7.5" stroke="#E0DFDC"/>
    <rect x="38" y="18" width="224" height="48" rx="8" fill="#F3F2EF"/>
    <path d="M38 58H262V66H38V58Z" fill="#D6CEC2"/>
    <text x="54" y="50" fill="#0A66C2" font-family="Arial, Helvetica, sans-serif" font-size="19" font-weight="700">Linked</text>
    <rect x="114" y="32" width="20" height="20" rx="3" fill="#0A66C2"/>
    <text x="119.5" y="47.5" fill="#FFFFFF" font-family="Arial, Helvetica, sans-serif" font-size="16" font-weight="700">in</text>
    <circle cx="72" cy="98" r="26" fill="#E9E5DF"/>
    <circle cx="72" cy="90" r="10" fill="#B6B0A8"/>
    <path d="M55 114C58.5 104.5 65.5 100 72 100C78.5 100 85.5 104.5 89 114" fill="#B6B0A8"/>
    <circle cx="72" cy="98" r="25.5" stroke="#D6CEC2"/>
    <text x="54" y="150" fill="#111827" font-family="Arial, Helvetica, sans-serif" font-size="14" font-weight="700">Michael Mnogolet</text>
    <text x="54" y="176" fill="#111827" font-family="Arial, Helvetica, sans-serif" font-size="12" font-weight="400">Searching for a job</text>
    <rect x="54.5" y="194.5" width="98" height="34" rx="17" fill="#FFFFFF" stroke="#0A66C2"/>
    <text x="103.5" y="216" text-anchor="middle" fill="#0A66C2" font-family="Arial, Helvetica, sans-serif" font-size="14" font-weight="700">См. профиль</text>
  </g>
</svg>
